<svg width="51" height="32" viewBox="0 0 51 32" fill="none" xmlns="http://www.w3.org/2000/svg">
<path d="M18.5629 16.9104H15.9433C14.8276 16.9104 13.922 17.816 13.922 18.9317C13.922 20.0475 14.8276 20.953 15.9433 20.953H19.1247C19.7938 20.953 20.3768 21.394 20.6169 22.0184C21.2478 23.6596 22.1491 25.1671 23.2658 26.4859C23.8573 27.184 23.3695 28.2539 22.4546 28.2539H19.7447C18.7772 28.2539 17.943 28.9977 17.8972 29.9652C17.8487 30.9974 18.6721 31.8504 19.6935 31.8504H32.9881C33.6942 31.9488 34.4138 32 35.1469 32C43.8088 32 50.8199 24.9215 50.7081 16.2313C50.5989 7.82947 43.74 0.977319 35.3382 0.874908C34.1605 0.860085 33.0124 0.977319 31.9074 1.21179C29.2663 1.77236 26.5699 2.03108 23.8708 2.03108H10.9858C9.89698 2.03108 8.95911 2.86789 8.9079 3.95669C8.85265 5.11826 9.7784 6.0777 10.9278 6.0777H19.2084C20.9184 6.0777 22.0341 7.88203 21.2606 9.40608C21.2512 9.4236 21.2431 9.44111 21.2337 9.45863C20.8456 10.2335 20.0506 10.7213 19.1828 10.7213H8.58719C7.49839 10.7213 6.56051 11.5581 6.50931 12.6469C6.45406 13.8084 7.37981 14.7679 8.52925 14.7679H18.5616C19.1693 14.7679 19.6544 15.2718 19.6315 15.8796C19.6099 16.455 19.1369 16.9091 18.5616 16.9091L18.5629 16.9104ZM30.7822 7.10586C30.9224 4.92961 32.6903 3.16435 34.8666 3.02825C37.5064 2.86385 39.6799 5.03875 39.5128 7.67855C39.3754 9.85615 37.6088 11.6228 35.4298 11.7602C32.786 11.9273 30.6098 9.747 30.7809 7.10451L30.7822 7.10586ZM22.0301 14.0752C21.867 11.4354 24.0419 9.26324 26.6817 9.43033C28.8607 9.56778 30.6273 11.3357 30.7634 13.5147C30.9291 16.1585 28.7475 18.3334 26.105 18.1623C23.9287 18.0208 22.1648 16.2528 22.0287 14.0766L22.0301 14.0752ZM33.8789 24.1251C33.7414 26.3027 31.9748 28.0693 29.7972 28.2067C27.1534 28.3738 24.9744 26.1935 25.1456 23.551C25.287 21.3734 27.055 19.6095 29.2326 19.4734C31.8724 19.309 34.0446 21.4853 33.8789 24.1251ZM35.3989 17.8699C34.4057 18.0356 33.5568 17.1907 33.7171 16.1976C33.8142 15.5966 34.2966 15.1101 34.8976 15.0091C35.8907 14.8433 36.7423 15.6869 36.582 16.6814C36.485 17.2837 36.0012 17.7702 35.3989 17.8712V17.8699ZM45.1522 24.1224C45.0161 26.3 43.2509 28.0679 41.0733 28.2067C38.4294 28.3765 36.2505 26.1962 36.4203 23.5537C36.5591 21.3775 38.3243 19.6109 40.5006 19.4734C43.139 19.3063 45.3166 21.4826 45.1522 24.1224ZM43.9004 18.1717C41.4829 18.1717 39.5236 16.2124 39.5236 13.7977C39.5236 11.3829 41.6541 9.25515 44.213 9.43303C46.3717 9.5826 48.1195 11.333 48.2664 13.4918C48.4402 16.048 46.4176 18.1731 43.9017 18.1731L43.9004 18.1717Z" fill="#712D9C"/>
<rect x="10.7734" y="28.3206" width="5.42906" height="3.61937" rx="1.80969" fill="#712D9C"/>
<rect x="0.06604" y="2.08041" width="6.78633" height="3.92099" rx="1.96049" fill="#712D9C"/>
</svg>
