<svg xmlns="http://www.w3.org/2000/svg" width="45" height="32" viewBox="0 0 45 32" fill="none">
    <path d="M12.5629 16.9104H9.94332C8.82757 16.9104 7.92203 17.816 7.92203 18.9317C7.92203 20.0475 8.82757 20.953 9.94332 20.953H13.1247C13.7938 20.953 14.3768 21.394 14.6169 22.0184C15.2478 23.6596 16.1491 25.1671 17.2658 26.4859C17.8573 27.184 17.3695 28.2539 16.4546 28.2539H13.7447C12.7772 28.2539 11.943 28.9977 11.8972 29.9652C11.8487 30.9974 12.6721 31.8504 13.6935 31.8504H26.9881C27.6942 31.9488 28.4138 32 29.1469 32C37.8088 32 44.8199 24.9215 44.7081 16.2313C44.5989 7.82947 37.74 0.977319 29.3382 0.874908C28.1605 0.860085 27.0124 0.977319 25.9074 1.21179C23.2663 1.77236 20.5699 2.03108 17.8708 2.03108H4.98578C3.89698 2.03108 2.95911 2.86789 2.9079 3.95669C2.85265 5.11826 3.7784 6.0777 4.92784 6.0777H13.2084C14.9184 6.0777 16.0341 7.88203 15.2606 9.40608C15.2512 9.4236 15.2431 9.44111 15.2337 9.45863C14.8456 10.2335 14.0506 10.7213 13.1828 10.7213H2.58719C1.49839 10.7213 0.560515 11.5581 0.509309 12.6469C0.45406 13.8084 1.37981 14.7679 2.52925 14.7679H12.5616C13.1693 14.7679 13.6544 15.2718 13.6315 15.8796C13.6099 16.455 13.1369 16.9091 12.5616 16.9091L12.5629 16.9104ZM24.7822 7.10586C24.9224 4.92961 26.6903 3.16435 28.8666 3.02825C31.5064 2.86385 33.6799 5.03875 33.5128 7.67855C33.3754 9.85615 31.6088 11.6228 29.4298 11.7602C26.786 11.9273 24.6098 9.747 24.7809 7.10451L24.7822 7.10586ZM16.0301 14.0752C15.867 11.4354 18.0419 9.26324 20.6817 9.43033C22.8607 9.56778 24.6273 11.3357 24.7634 13.5147C24.9291 16.1585 22.7475 18.3334 20.105 18.1623C17.9287 18.0208 16.1648 16.2528 16.0287 14.0766L16.0301 14.0752ZM27.8789 24.1251C27.7414 26.3027 25.9748 28.0693 23.7972 28.2067C21.1534 28.3738 18.9744 26.1935 19.1456 23.551C19.287 21.3734 21.055 19.6095 23.2326 19.4734C25.8724 19.309 28.0446 21.4853 27.8789 24.1251ZM29.3989 17.8699C28.4057 18.0356 27.5568 17.1907 27.7171 16.1976C27.8142 15.5966 28.2966 15.1101 28.8976 15.0091C29.8907 14.8433 30.7423 15.6869 30.582 16.6814C30.485 17.2837 30.0012 17.7702 29.3989 17.8712V17.8699ZM39.1522 24.1224C39.0161 26.3 37.2509 28.0679 35.0733 28.2067C32.4294 28.3765 30.2505 26.1962 30.4203 23.5537C30.5591 21.3775 32.3243 19.6109 34.5006 19.4734C37.139 19.3063 39.3166 21.4826 39.1522 24.1224ZM37.9004 18.1717C35.4829 18.1717 33.5236 16.2124 33.5236 13.7977C33.5236 11.3829 35.6541 9.25516 38.213 9.43303C40.3717 9.5826 42.1195 11.333 42.2664 13.4918C42.4402 16.048 40.4176 18.1731 37.9017 18.1731L37.9004 18.1717Z"
          fill="#712D9C"/>
</svg>