<svg width="24" height="24" viewBox="0 0 24 24" fill="none" xmlns="http://www.w3.org/2000/svg">
    <path d="M12 21C9.48333 21 7.35417 20.1292 5.6125 18.3875C3.87083 16.6458 3 14.5167 3 12C3 9.69999 3.75 7.70415 5.25 6.01249C6.75 4.32082 8.66667 3.33332 11 3.04998C11.2167 3.01665 11.4083 3.04582 11.575 3.13748C11.7417 3.22915 11.875 3.34998 11.975 3.49998C12.075 3.64998 12.1292 3.82498 12.1375 4.02498C12.1458 4.22499 12.0833 4.41665 11.95 4.59999C11.6667 5.03332 11.4542 5.49165 11.3125 5.97498C11.1708 6.45832 11.1 6.96665 11.1 7.49999C11.1 8.99999 11.625 10.275 12.675 11.325C13.725 12.375 15 12.9 16.5 12.9C17.0167 12.9 17.5292 12.825 18.0375 12.675C18.5458 12.525 19 12.3167 19.4 12.05C19.5833 11.9333 19.7708 11.8792 19.9625 11.8875C20.1542 11.8958 20.325 11.9417 20.475 12.025C20.6417 12.1083 20.7708 12.2333 20.8625 12.4C20.9542 12.5667 20.9833 12.7667 20.95 13C20.7167 15.3 19.7375 17.2083 18.0125 18.725C16.2875 20.2417 14.2833 21 12 21ZM12 19C13.4667 19 14.7833 18.5958 15.95 17.7875C17.1167 16.9792 17.9667 15.925 18.5 14.625C18.1667 14.7083 17.8333 14.775 17.5 14.825C17.1667 14.875 16.8333 14.9 16.5 14.9C14.45 14.9 12.7042 14.1792 11.2625 12.7375C9.82083 11.2958 9.1 9.54999 9.1 7.49999C9.1 7.16665 9.125 6.83332 9.175 6.49999C9.225 6.16665 9.29167 5.83332 9.375 5.49998C8.075 6.03332 7.02083 6.88332 6.2125 8.04999C5.40417 9.21665 5 10.5333 5 12C5 13.9333 5.68333 15.5833 7.05 16.95C8.41667 18.3167 10.0667 19 12 19Z"
          fill="#97A1AF"/>
</svg>
